<mxfile host="Electron" modified="2025-01-17T13:27:35.281Z" agent="Mozilla/5.0 (Windows NT 10.0; Win64; x64) AppleWebKit/537.36 (KHTML, like Gecko) draw.io/24.2.5 Chrome/120.0.6099.109 Electron/28.1.0 Safari/537.36" etag="CgGV-y8m3zajrBTz5kkO" version="24.2.5" type="device">
  <diagram name="第 1 页" id="o7P1FoaPVpYfDfxkkUxn">
    <mxGraphModel dx="2074" dy="1196" grid="1" gridSize="10" guides="1" tooltips="1" connect="1" arrows="1" fold="1" page="1" pageScale="1" pageWidth="827" pageHeight="1169" math="0" shadow="0">
      <root>
        <mxCell id="0" />
        <mxCell id="1" parent="0" />
        <mxCell id="rd7oeKDn1ImQtp38muPT-1" value="key" style="rounded=0;whiteSpace=wrap;html=1;fillColor=#dae8fc;strokeColor=#6c8ebf;" parent="1" vertex="1">
          <mxGeometry x="230" y="330" width="40" height="20" as="geometry" />
        </mxCell>
        <mxCell id="rd7oeKDn1ImQtp38muPT-3" value="value" style="rounded=0;whiteSpace=wrap;html=1;fillColor=#dae8fc;strokeColor=#6c8ebf;" parent="1" vertex="1">
          <mxGeometry x="270" y="330" width="40" height="20" as="geometry" />
        </mxCell>
        <mxCell id="rd7oeKDn1ImQtp38muPT-4" value="" style="rounded=0;whiteSpace=wrap;html=1;fillColor=#dae8fc;strokeColor=#6c8ebf;" parent="1" vertex="1">
          <mxGeometry x="230" y="350" width="40" height="20" as="geometry" />
        </mxCell>
        <mxCell id="rd7oeKDn1ImQtp38muPT-5" value="" style="rounded=0;whiteSpace=wrap;html=1;fillColor=#dae8fc;strokeColor=#6c8ebf;" parent="1" vertex="1">
          <mxGeometry x="270" y="350" width="40" height="20" as="geometry" />
        </mxCell>
        <mxCell id="rd7oeKDn1ImQtp38muPT-6" value="" style="rounded=0;whiteSpace=wrap;html=1;fillColor=#dae8fc;strokeColor=#6c8ebf;" parent="1" vertex="1">
          <mxGeometry x="230" y="370" width="40" height="20" as="geometry" />
        </mxCell>
        <mxCell id="rd7oeKDn1ImQtp38muPT-7" value="" style="rounded=0;whiteSpace=wrap;html=1;fillColor=#dae8fc;strokeColor=#6c8ebf;" parent="1" vertex="1">
          <mxGeometry x="270" y="370" width="40" height="20" as="geometry" />
        </mxCell>
        <mxCell id="rd7oeKDn1ImQtp38muPT-8" value="" style="rounded=0;whiteSpace=wrap;html=1;fillColor=#dae8fc;strokeColor=#6c8ebf;" parent="1" vertex="1">
          <mxGeometry x="230" y="390" width="40" height="20" as="geometry" />
        </mxCell>
        <mxCell id="rd7oeKDn1ImQtp38muPT-9" value="" style="rounded=0;whiteSpace=wrap;html=1;fillColor=#dae8fc;strokeColor=#6c8ebf;" parent="1" vertex="1">
          <mxGeometry x="270" y="390" width="40" height="20" as="geometry" />
        </mxCell>
        <mxCell id="rd7oeKDn1ImQtp38muPT-10" value="" style="rounded=0;whiteSpace=wrap;html=1;fillColor=#dae8fc;strokeColor=#6c8ebf;" parent="1" vertex="1">
          <mxGeometry x="230" y="410" width="40" height="20" as="geometry" />
        </mxCell>
        <mxCell id="rd7oeKDn1ImQtp38muPT-11" value="" style="rounded=0;whiteSpace=wrap;html=1;fillColor=#dae8fc;strokeColor=#6c8ebf;" parent="1" vertex="1">
          <mxGeometry x="270" y="410" width="40" height="20" as="geometry" />
        </mxCell>
        <mxCell id="rd7oeKDn1ImQtp38muPT-12" value="" style="rounded=0;whiteSpace=wrap;html=1;fillColor=#dae8fc;strokeColor=#6c8ebf;" parent="1" vertex="1">
          <mxGeometry x="230" y="430" width="40" height="20" as="geometry" />
        </mxCell>
        <mxCell id="rd7oeKDn1ImQtp38muPT-13" value="" style="rounded=0;whiteSpace=wrap;html=1;fillColor=#dae8fc;strokeColor=#6c8ebf;" parent="1" vertex="1">
          <mxGeometry x="270" y="430" width="40" height="20" as="geometry" />
        </mxCell>
        <mxCell id="rd7oeKDn1ImQtp38muPT-14" value="" style="rounded=0;whiteSpace=wrap;html=1;fillColor=#dae8fc;strokeColor=#6c8ebf;" parent="1" vertex="1">
          <mxGeometry x="230" y="450" width="40" height="20" as="geometry" />
        </mxCell>
        <mxCell id="rd7oeKDn1ImQtp38muPT-15" value="" style="rounded=0;whiteSpace=wrap;html=1;fillColor=#dae8fc;strokeColor=#6c8ebf;" parent="1" vertex="1">
          <mxGeometry x="270" y="450" width="40" height="20" as="geometry" />
        </mxCell>
        <mxCell id="rd7oeKDn1ImQtp38muPT-16" value="" style="rounded=0;whiteSpace=wrap;html=1;fillColor=#dae8fc;strokeColor=#6c8ebf;" parent="1" vertex="1">
          <mxGeometry x="230" y="470" width="40" height="20" as="geometry" />
        </mxCell>
        <mxCell id="rd7oeKDn1ImQtp38muPT-17" value="" style="rounded=0;whiteSpace=wrap;html=1;fillColor=#dae8fc;strokeColor=#6c8ebf;" parent="1" vertex="1">
          <mxGeometry x="270" y="470" width="40" height="20" as="geometry" />
        </mxCell>
        <mxCell id="rd7oeKDn1ImQtp38muPT-19" value="col0" style="rounded=0;whiteSpace=wrap;html=1;fillColor=#dae8fc;strokeColor=#6c8ebf;" parent="1" vertex="1">
          <mxGeometry x="356" y="330" width="40" height="20" as="geometry" />
        </mxCell>
        <mxCell id="rd7oeKDn1ImQtp38muPT-20" value="col1" style="rounded=0;whiteSpace=wrap;html=1;fillColor=#dae8fc;strokeColor=#6c8ebf;" parent="1" vertex="1">
          <mxGeometry x="396" y="330" width="40" height="20" as="geometry" />
        </mxCell>
        <mxCell id="rd7oeKDn1ImQtp38muPT-21" value="" style="rounded=0;whiteSpace=wrap;html=1;fillColor=#dae8fc;strokeColor=#6c8ebf;" parent="1" vertex="1">
          <mxGeometry x="356" y="350" width="40" height="20" as="geometry" />
        </mxCell>
        <mxCell id="rd7oeKDn1ImQtp38muPT-22" value="" style="rounded=0;whiteSpace=wrap;html=1;fillColor=#dae8fc;strokeColor=#6c8ebf;" parent="1" vertex="1">
          <mxGeometry x="396" y="350" width="40" height="20" as="geometry" />
        </mxCell>
        <mxCell id="rd7oeKDn1ImQtp38muPT-23" value="" style="rounded=0;whiteSpace=wrap;html=1;fillColor=#dae8fc;strokeColor=#6c8ebf;" parent="1" vertex="1">
          <mxGeometry x="356" y="370" width="40" height="20" as="geometry" />
        </mxCell>
        <mxCell id="rd7oeKDn1ImQtp38muPT-24" value="" style="rounded=0;whiteSpace=wrap;html=1;fillColor=#dae8fc;strokeColor=#6c8ebf;" parent="1" vertex="1">
          <mxGeometry x="396" y="370" width="40" height="20" as="geometry" />
        </mxCell>
        <mxCell id="rd7oeKDn1ImQtp38muPT-25" value="左表 partition0 哈希表" style="text;html=1;align=center;verticalAlign=middle;resizable=0;points=[];autosize=1;strokeColor=none;fillColor=none;" parent="1" vertex="1">
          <mxGeometry x="200" y="290" width="140" height="30" as="geometry" />
        </mxCell>
        <mxCell id="rd7oeKDn1ImQtp38muPT-26" value="右表 partition0 数据" style="text;html=1;align=center;verticalAlign=middle;resizable=0;points=[];autosize=1;strokeColor=none;fillColor=none;" parent="1" vertex="1">
          <mxGeometry x="332" y="290" width="130" height="30" as="geometry" />
        </mxCell>
        <mxCell id="rd7oeKDn1ImQtp38muPT-34" value="" style="rounded=0;whiteSpace=wrap;html=1;fillColor=#dae8fc;strokeColor=#6c8ebf;" parent="1" vertex="1">
          <mxGeometry x="357" y="430" width="40" height="20" as="geometry" />
        </mxCell>
        <mxCell id="rd7oeKDn1ImQtp38muPT-35" value="" style="rounded=0;whiteSpace=wrap;html=1;fillColor=#dae8fc;strokeColor=#6c8ebf;" parent="1" vertex="1">
          <mxGeometry x="397" y="430" width="40" height="20" as="geometry" />
        </mxCell>
        <mxCell id="rd7oeKDn1ImQtp38muPT-36" value="" style="rounded=0;whiteSpace=wrap;html=1;fillColor=#dae8fc;strokeColor=#6c8ebf;" parent="1" vertex="1">
          <mxGeometry x="357" y="450" width="40" height="20" as="geometry" />
        </mxCell>
        <mxCell id="rd7oeKDn1ImQtp38muPT-37" value="" style="rounded=0;whiteSpace=wrap;html=1;fillColor=#dae8fc;strokeColor=#6c8ebf;" parent="1" vertex="1">
          <mxGeometry x="397" y="450" width="40" height="20" as="geometry" />
        </mxCell>
        <mxCell id="rd7oeKDn1ImQtp38muPT-38" value="" style="rounded=0;whiteSpace=wrap;html=1;fillColor=#dae8fc;strokeColor=#6c8ebf;" parent="1" vertex="1">
          <mxGeometry x="357" y="470" width="40" height="20" as="geometry" />
        </mxCell>
        <mxCell id="rd7oeKDn1ImQtp38muPT-39" value="" style="rounded=0;whiteSpace=wrap;html=1;fillColor=#dae8fc;strokeColor=#6c8ebf;" parent="1" vertex="1">
          <mxGeometry x="397" y="470" width="40" height="20" as="geometry" />
        </mxCell>
        <mxCell id="rd7oeKDn1ImQtp38muPT-40" value="&lt;b&gt;&lt;font style=&quot;font-size: 14px;&quot;&gt;...&lt;/font&gt;&lt;/b&gt;" style="text;html=1;align=center;verticalAlign=middle;resizable=0;points=[];autosize=1;" parent="1" vertex="1">
          <mxGeometry x="377" y="390" width="40" height="30" as="geometry" />
        </mxCell>
        <mxCell id="2Pc8kauoLTUtq_JGZ4tZ-1" value="key" style="rounded=0;whiteSpace=wrap;html=1;fillColor=#ffe6cc;strokeColor=#d79b00;" parent="1" vertex="1">
          <mxGeometry x="512" y="330" width="40" height="20" as="geometry" />
        </mxCell>
        <mxCell id="2Pc8kauoLTUtq_JGZ4tZ-2" value="value" style="rounded=0;whiteSpace=wrap;html=1;fillColor=#ffe6cc;strokeColor=#d79b00;" parent="1" vertex="1">
          <mxGeometry x="552" y="330" width="40" height="20" as="geometry" />
        </mxCell>
        <mxCell id="2Pc8kauoLTUtq_JGZ4tZ-3" value="" style="rounded=0;whiteSpace=wrap;html=1;fillColor=#ffe6cc;strokeColor=#d79b00;" parent="1" vertex="1">
          <mxGeometry x="512" y="350" width="40" height="20" as="geometry" />
        </mxCell>
        <mxCell id="2Pc8kauoLTUtq_JGZ4tZ-4" value="" style="rounded=0;whiteSpace=wrap;html=1;fillColor=#ffe6cc;strokeColor=#d79b00;" parent="1" vertex="1">
          <mxGeometry x="552" y="350" width="40" height="20" as="geometry" />
        </mxCell>
        <mxCell id="2Pc8kauoLTUtq_JGZ4tZ-5" value="" style="rounded=0;whiteSpace=wrap;html=1;fillColor=#ffe6cc;strokeColor=#d79b00;" parent="1" vertex="1">
          <mxGeometry x="512" y="370" width="40" height="20" as="geometry" />
        </mxCell>
        <mxCell id="2Pc8kauoLTUtq_JGZ4tZ-6" value="" style="rounded=0;whiteSpace=wrap;html=1;fillColor=#ffe6cc;strokeColor=#d79b00;" parent="1" vertex="1">
          <mxGeometry x="552" y="370" width="40" height="20" as="geometry" />
        </mxCell>
        <mxCell id="2Pc8kauoLTUtq_JGZ4tZ-7" value="" style="rounded=0;whiteSpace=wrap;html=1;fillColor=#ffe6cc;strokeColor=#d79b00;" parent="1" vertex="1">
          <mxGeometry x="512" y="390" width="40" height="20" as="geometry" />
        </mxCell>
        <mxCell id="2Pc8kauoLTUtq_JGZ4tZ-8" value="" style="rounded=0;whiteSpace=wrap;html=1;fillColor=#ffe6cc;strokeColor=#d79b00;" parent="1" vertex="1">
          <mxGeometry x="552" y="390" width="40" height="20" as="geometry" />
        </mxCell>
        <mxCell id="2Pc8kauoLTUtq_JGZ4tZ-9" value="" style="rounded=0;whiteSpace=wrap;html=1;fillColor=#ffe6cc;strokeColor=#d79b00;" parent="1" vertex="1">
          <mxGeometry x="512" y="410" width="40" height="20" as="geometry" />
        </mxCell>
        <mxCell id="2Pc8kauoLTUtq_JGZ4tZ-10" value="" style="rounded=0;whiteSpace=wrap;html=1;fillColor=#ffe6cc;strokeColor=#d79b00;" parent="1" vertex="1">
          <mxGeometry x="552" y="410" width="40" height="20" as="geometry" />
        </mxCell>
        <mxCell id="2Pc8kauoLTUtq_JGZ4tZ-11" value="" style="rounded=0;whiteSpace=wrap;html=1;fillColor=#ffe6cc;strokeColor=#d79b00;" parent="1" vertex="1">
          <mxGeometry x="512" y="430" width="40" height="20" as="geometry" />
        </mxCell>
        <mxCell id="2Pc8kauoLTUtq_JGZ4tZ-12" value="" style="rounded=0;whiteSpace=wrap;html=1;fillColor=#ffe6cc;strokeColor=#d79b00;" parent="1" vertex="1">
          <mxGeometry x="552" y="430" width="40" height="20" as="geometry" />
        </mxCell>
        <mxCell id="2Pc8kauoLTUtq_JGZ4tZ-13" value="" style="rounded=0;whiteSpace=wrap;html=1;fillColor=#ffe6cc;strokeColor=#d79b00;" parent="1" vertex="1">
          <mxGeometry x="512" y="450" width="40" height="20" as="geometry" />
        </mxCell>
        <mxCell id="2Pc8kauoLTUtq_JGZ4tZ-14" value="" style="rounded=0;whiteSpace=wrap;html=1;fillColor=#ffe6cc;strokeColor=#d79b00;" parent="1" vertex="1">
          <mxGeometry x="552" y="450" width="40" height="20" as="geometry" />
        </mxCell>
        <mxCell id="2Pc8kauoLTUtq_JGZ4tZ-15" value="" style="rounded=0;whiteSpace=wrap;html=1;fillColor=#ffe6cc;strokeColor=#d79b00;" parent="1" vertex="1">
          <mxGeometry x="512" y="470" width="40" height="20" as="geometry" />
        </mxCell>
        <mxCell id="2Pc8kauoLTUtq_JGZ4tZ-16" value="" style="rounded=0;whiteSpace=wrap;html=1;fillColor=#ffe6cc;strokeColor=#d79b00;" parent="1" vertex="1">
          <mxGeometry x="552" y="470" width="40" height="20" as="geometry" />
        </mxCell>
        <mxCell id="2Pc8kauoLTUtq_JGZ4tZ-17" value="col0" style="rounded=0;whiteSpace=wrap;html=1;fillColor=#ffe6cc;strokeColor=#d79b00;" parent="1" vertex="1">
          <mxGeometry x="638" y="330" width="40" height="20" as="geometry" />
        </mxCell>
        <mxCell id="2Pc8kauoLTUtq_JGZ4tZ-18" value="col1" style="rounded=0;whiteSpace=wrap;html=1;fillColor=#ffe6cc;strokeColor=#d79b00;" parent="1" vertex="1">
          <mxGeometry x="678" y="330" width="40" height="20" as="geometry" />
        </mxCell>
        <mxCell id="2Pc8kauoLTUtq_JGZ4tZ-19" value="" style="rounded=0;whiteSpace=wrap;html=1;fillColor=#ffe6cc;strokeColor=#d79b00;" parent="1" vertex="1">
          <mxGeometry x="638" y="350" width="40" height="20" as="geometry" />
        </mxCell>
        <mxCell id="2Pc8kauoLTUtq_JGZ4tZ-20" value="" style="rounded=0;whiteSpace=wrap;html=1;fillColor=#ffe6cc;strokeColor=#d79b00;" parent="1" vertex="1">
          <mxGeometry x="678" y="350" width="40" height="20" as="geometry" />
        </mxCell>
        <mxCell id="2Pc8kauoLTUtq_JGZ4tZ-21" value="" style="rounded=0;whiteSpace=wrap;html=1;fillColor=#ffe6cc;strokeColor=#d79b00;" parent="1" vertex="1">
          <mxGeometry x="638" y="370" width="40" height="20" as="geometry" />
        </mxCell>
        <mxCell id="2Pc8kauoLTUtq_JGZ4tZ-22" value="" style="rounded=0;whiteSpace=wrap;html=1;fillColor=#ffe6cc;strokeColor=#d79b00;" parent="1" vertex="1">
          <mxGeometry x="678" y="370" width="40" height="20" as="geometry" />
        </mxCell>
        <mxCell id="2Pc8kauoLTUtq_JGZ4tZ-23" value="左表 partition1 哈希表" style="text;html=1;align=center;verticalAlign=middle;resizable=0;points=[];autosize=1;strokeColor=none;fillColor=none;" parent="1" vertex="1">
          <mxGeometry x="482" y="290" width="140" height="30" as="geometry" />
        </mxCell>
        <mxCell id="2Pc8kauoLTUtq_JGZ4tZ-24" value="右表 partition1 数据" style="text;html=1;align=center;verticalAlign=middle;resizable=0;points=[];autosize=1;strokeColor=none;fillColor=none;" parent="1" vertex="1">
          <mxGeometry x="614" y="290" width="130" height="30" as="geometry" />
        </mxCell>
        <mxCell id="2Pc8kauoLTUtq_JGZ4tZ-25" value="" style="rounded=0;whiteSpace=wrap;html=1;fillColor=#ffe6cc;strokeColor=#d79b00;" parent="1" vertex="1">
          <mxGeometry x="639" y="430" width="40" height="20" as="geometry" />
        </mxCell>
        <mxCell id="2Pc8kauoLTUtq_JGZ4tZ-26" value="" style="rounded=0;whiteSpace=wrap;html=1;fillColor=#ffe6cc;strokeColor=#d79b00;" parent="1" vertex="1">
          <mxGeometry x="679" y="430" width="40" height="20" as="geometry" />
        </mxCell>
        <mxCell id="2Pc8kauoLTUtq_JGZ4tZ-27" value="" style="rounded=0;whiteSpace=wrap;html=1;fillColor=#ffe6cc;strokeColor=#d79b00;" parent="1" vertex="1">
          <mxGeometry x="639" y="450" width="40" height="20" as="geometry" />
        </mxCell>
        <mxCell id="2Pc8kauoLTUtq_JGZ4tZ-28" value="" style="rounded=0;whiteSpace=wrap;html=1;fillColor=#ffe6cc;strokeColor=#d79b00;" parent="1" vertex="1">
          <mxGeometry x="679" y="450" width="40" height="20" as="geometry" />
        </mxCell>
        <mxCell id="2Pc8kauoLTUtq_JGZ4tZ-29" value="" style="rounded=0;whiteSpace=wrap;html=1;fillColor=#ffe6cc;strokeColor=#d79b00;" parent="1" vertex="1">
          <mxGeometry x="639" y="470" width="40" height="20" as="geometry" />
        </mxCell>
        <mxCell id="2Pc8kauoLTUtq_JGZ4tZ-30" value="" style="rounded=0;whiteSpace=wrap;html=1;fillColor=#ffe6cc;strokeColor=#d79b00;" parent="1" vertex="1">
          <mxGeometry x="679" y="470" width="40" height="20" as="geometry" />
        </mxCell>
        <mxCell id="2Pc8kauoLTUtq_JGZ4tZ-31" value="&lt;b&gt;&lt;font style=&quot;font-size: 14px;&quot;&gt;...&lt;/font&gt;&lt;/b&gt;" style="text;html=1;align=center;verticalAlign=middle;resizable=0;points=[];autosize=1;" parent="1" vertex="1">
          <mxGeometry x="659" y="390" width="40" height="30" as="geometry" />
        </mxCell>
        <mxCell id="2Pc8kauoLTUtq_JGZ4tZ-32" value="key" style="rounded=0;whiteSpace=wrap;html=1;fillColor=#e1d5e7;strokeColor=#9673a6;" parent="1" vertex="1">
          <mxGeometry x="800" y="330" width="40" height="20" as="geometry" />
        </mxCell>
        <mxCell id="2Pc8kauoLTUtq_JGZ4tZ-33" value="value" style="rounded=0;whiteSpace=wrap;html=1;fillColor=#e1d5e7;strokeColor=#9673a6;" parent="1" vertex="1">
          <mxGeometry x="840" y="330" width="40" height="20" as="geometry" />
        </mxCell>
        <mxCell id="2Pc8kauoLTUtq_JGZ4tZ-34" value="" style="rounded=0;whiteSpace=wrap;html=1;fillColor=#e1d5e7;strokeColor=#9673a6;" parent="1" vertex="1">
          <mxGeometry x="800" y="350" width="40" height="20" as="geometry" />
        </mxCell>
        <mxCell id="2Pc8kauoLTUtq_JGZ4tZ-35" value="" style="rounded=0;whiteSpace=wrap;html=1;fillColor=#e1d5e7;strokeColor=#9673a6;" parent="1" vertex="1">
          <mxGeometry x="840" y="350" width="40" height="20" as="geometry" />
        </mxCell>
        <mxCell id="2Pc8kauoLTUtq_JGZ4tZ-36" value="" style="rounded=0;whiteSpace=wrap;html=1;fillColor=#e1d5e7;strokeColor=#9673a6;" parent="1" vertex="1">
          <mxGeometry x="800" y="370" width="40" height="20" as="geometry" />
        </mxCell>
        <mxCell id="2Pc8kauoLTUtq_JGZ4tZ-37" value="" style="rounded=0;whiteSpace=wrap;html=1;fillColor=#e1d5e7;strokeColor=#9673a6;" parent="1" vertex="1">
          <mxGeometry x="840" y="370" width="40" height="20" as="geometry" />
        </mxCell>
        <mxCell id="2Pc8kauoLTUtq_JGZ4tZ-38" value="" style="rounded=0;whiteSpace=wrap;html=1;fillColor=#e1d5e7;strokeColor=#9673a6;" parent="1" vertex="1">
          <mxGeometry x="800" y="390" width="40" height="20" as="geometry" />
        </mxCell>
        <mxCell id="2Pc8kauoLTUtq_JGZ4tZ-39" value="" style="rounded=0;whiteSpace=wrap;html=1;fillColor=#e1d5e7;strokeColor=#9673a6;" parent="1" vertex="1">
          <mxGeometry x="840" y="390" width="40" height="20" as="geometry" />
        </mxCell>
        <mxCell id="2Pc8kauoLTUtq_JGZ4tZ-40" value="" style="rounded=0;whiteSpace=wrap;html=1;fillColor=#e1d5e7;strokeColor=#9673a6;" parent="1" vertex="1">
          <mxGeometry x="800" y="410" width="40" height="20" as="geometry" />
        </mxCell>
        <mxCell id="2Pc8kauoLTUtq_JGZ4tZ-41" value="" style="rounded=0;whiteSpace=wrap;html=1;fillColor=#e1d5e7;strokeColor=#9673a6;" parent="1" vertex="1">
          <mxGeometry x="840" y="410" width="40" height="20" as="geometry" />
        </mxCell>
        <mxCell id="2Pc8kauoLTUtq_JGZ4tZ-42" value="" style="rounded=0;whiteSpace=wrap;html=1;fillColor=#e1d5e7;strokeColor=#9673a6;" parent="1" vertex="1">
          <mxGeometry x="800" y="430" width="40" height="20" as="geometry" />
        </mxCell>
        <mxCell id="2Pc8kauoLTUtq_JGZ4tZ-43" value="" style="rounded=0;whiteSpace=wrap;html=1;fillColor=#e1d5e7;strokeColor=#9673a6;" parent="1" vertex="1">
          <mxGeometry x="840" y="430" width="40" height="20" as="geometry" />
        </mxCell>
        <mxCell id="2Pc8kauoLTUtq_JGZ4tZ-44" value="" style="rounded=0;whiteSpace=wrap;html=1;fillColor=#e1d5e7;strokeColor=#9673a6;" parent="1" vertex="1">
          <mxGeometry x="800" y="450" width="40" height="20" as="geometry" />
        </mxCell>
        <mxCell id="2Pc8kauoLTUtq_JGZ4tZ-45" value="" style="rounded=0;whiteSpace=wrap;html=1;fillColor=#e1d5e7;strokeColor=#9673a6;" parent="1" vertex="1">
          <mxGeometry x="840" y="450" width="40" height="20" as="geometry" />
        </mxCell>
        <mxCell id="2Pc8kauoLTUtq_JGZ4tZ-46" value="" style="rounded=0;whiteSpace=wrap;html=1;fillColor=#e1d5e7;strokeColor=#9673a6;" parent="1" vertex="1">
          <mxGeometry x="800" y="470" width="40" height="20" as="geometry" />
        </mxCell>
        <mxCell id="2Pc8kauoLTUtq_JGZ4tZ-47" value="" style="rounded=0;whiteSpace=wrap;html=1;fillColor=#e1d5e7;strokeColor=#9673a6;" parent="1" vertex="1">
          <mxGeometry x="840" y="470" width="40" height="20" as="geometry" />
        </mxCell>
        <mxCell id="2Pc8kauoLTUtq_JGZ4tZ-48" value="col0" style="rounded=0;whiteSpace=wrap;html=1;fillColor=#e1d5e7;strokeColor=#9673a6;" parent="1" vertex="1">
          <mxGeometry x="926" y="330" width="40" height="20" as="geometry" />
        </mxCell>
        <mxCell id="2Pc8kauoLTUtq_JGZ4tZ-49" value="col1" style="rounded=0;whiteSpace=wrap;html=1;fillColor=#e1d5e7;strokeColor=#9673a6;" parent="1" vertex="1">
          <mxGeometry x="966" y="330" width="40" height="20" as="geometry" />
        </mxCell>
        <mxCell id="2Pc8kauoLTUtq_JGZ4tZ-50" value="" style="rounded=0;whiteSpace=wrap;html=1;fillColor=#e1d5e7;strokeColor=#9673a6;" parent="1" vertex="1">
          <mxGeometry x="926" y="350" width="40" height="20" as="geometry" />
        </mxCell>
        <mxCell id="2Pc8kauoLTUtq_JGZ4tZ-51" value="" style="rounded=0;whiteSpace=wrap;html=1;fillColor=#e1d5e7;strokeColor=#9673a6;" parent="1" vertex="1">
          <mxGeometry x="966" y="350" width="40" height="20" as="geometry" />
        </mxCell>
        <mxCell id="2Pc8kauoLTUtq_JGZ4tZ-52" value="" style="rounded=0;whiteSpace=wrap;html=1;fillColor=#e1d5e7;strokeColor=#9673a6;" parent="1" vertex="1">
          <mxGeometry x="926" y="370" width="40" height="20" as="geometry" />
        </mxCell>
        <mxCell id="2Pc8kauoLTUtq_JGZ4tZ-53" value="" style="rounded=0;whiteSpace=wrap;html=1;fillColor=#e1d5e7;strokeColor=#9673a6;" parent="1" vertex="1">
          <mxGeometry x="966" y="370" width="40" height="20" as="geometry" />
        </mxCell>
        <mxCell id="2Pc8kauoLTUtq_JGZ4tZ-54" value="左表 partition2 哈希表" style="text;html=1;align=center;verticalAlign=middle;resizable=0;points=[];autosize=1;strokeColor=none;fillColor=none;" parent="1" vertex="1">
          <mxGeometry x="770" y="290" width="140" height="30" as="geometry" />
        </mxCell>
        <mxCell id="2Pc8kauoLTUtq_JGZ4tZ-55" value="右表 partition3 数据" style="text;html=1;align=center;verticalAlign=middle;resizable=0;points=[];autosize=1;strokeColor=none;fillColor=none;" parent="1" vertex="1">
          <mxGeometry x="902" y="290" width="130" height="30" as="geometry" />
        </mxCell>
        <mxCell id="2Pc8kauoLTUtq_JGZ4tZ-56" value="" style="rounded=0;whiteSpace=wrap;html=1;fillColor=#e1d5e7;strokeColor=#9673a6;" parent="1" vertex="1">
          <mxGeometry x="927" y="430" width="40" height="20" as="geometry" />
        </mxCell>
        <mxCell id="2Pc8kauoLTUtq_JGZ4tZ-57" value="" style="rounded=0;whiteSpace=wrap;html=1;fillColor=#e1d5e7;strokeColor=#9673a6;" parent="1" vertex="1">
          <mxGeometry x="967" y="430" width="40" height="20" as="geometry" />
        </mxCell>
        <mxCell id="2Pc8kauoLTUtq_JGZ4tZ-58" value="" style="rounded=0;whiteSpace=wrap;html=1;fillColor=#e1d5e7;strokeColor=#9673a6;" parent="1" vertex="1">
          <mxGeometry x="927" y="450" width="40" height="20" as="geometry" />
        </mxCell>
        <mxCell id="2Pc8kauoLTUtq_JGZ4tZ-59" value="" style="rounded=0;whiteSpace=wrap;html=1;fillColor=#e1d5e7;strokeColor=#9673a6;" parent="1" vertex="1">
          <mxGeometry x="967" y="450" width="40" height="20" as="geometry" />
        </mxCell>
        <mxCell id="2Pc8kauoLTUtq_JGZ4tZ-60" value="" style="rounded=0;whiteSpace=wrap;html=1;fillColor=#e1d5e7;strokeColor=#9673a6;" parent="1" vertex="1">
          <mxGeometry x="927" y="470" width="40" height="20" as="geometry" />
        </mxCell>
        <mxCell id="2Pc8kauoLTUtq_JGZ4tZ-61" value="" style="rounded=0;whiteSpace=wrap;html=1;fillColor=#e1d5e7;strokeColor=#9673a6;" parent="1" vertex="1">
          <mxGeometry x="967" y="470" width="40" height="20" as="geometry" />
        </mxCell>
        <mxCell id="2Pc8kauoLTUtq_JGZ4tZ-62" value="&lt;b&gt;&lt;font style=&quot;font-size: 14px;&quot;&gt;...&lt;/font&gt;&lt;/b&gt;" style="text;html=1;align=center;verticalAlign=middle;resizable=0;points=[];autosize=1;" parent="1" vertex="1">
          <mxGeometry x="947" y="390" width="40" height="30" as="geometry" />
        </mxCell>
        <mxCell id="2Pc8kauoLTUtq_JGZ4tZ-67" value="&lt;span style=&quot;font-size: 39px;&quot;&gt;&lt;font style=&quot;font-size: 39px;&quot;&gt;...&lt;/font&gt;&lt;/span&gt;" style="text;html=1;align=center;verticalAlign=middle;resizable=0;points=[];autosize=1;strokeColor=none;fillColor=none;fontSize=39;fontStyle=1" parent="1" vertex="1">
          <mxGeometry x="1055" y="368" width="60" height="60" as="geometry" />
        </mxCell>
        <mxCell id="2Pc8kauoLTUtq_JGZ4tZ-68" value="" style="endArrow=none;dashed=1;html=1;dashPattern=1 3;strokeWidth=2;rounded=0;" parent="1" edge="1">
          <mxGeometry width="50" height="50" relative="1" as="geometry">
            <mxPoint x="478" y="520" as="sourcePoint" />
            <mxPoint x="478" y="280" as="targetPoint" />
          </mxGeometry>
        </mxCell>
        <mxCell id="2Pc8kauoLTUtq_JGZ4tZ-69" value="" style="endArrow=none;dashed=1;html=1;dashPattern=1 3;strokeWidth=2;rounded=0;" parent="1" edge="1">
          <mxGeometry width="50" height="50" relative="1" as="geometry">
            <mxPoint x="760" y="520" as="sourcePoint" />
            <mxPoint x="760" y="280" as="targetPoint" />
          </mxGeometry>
        </mxCell>
        <mxCell id="n1mf0t2uNrROeBXjLGeQ-1" value="" style="endArrow=none;dashed=1;html=1;dashPattern=1 3;strokeWidth=2;rounded=0;" edge="1" parent="1">
          <mxGeometry width="50" height="50" relative="1" as="geometry">
            <mxPoint x="1046" y="520" as="sourcePoint" />
            <mxPoint x="1046" y="280" as="targetPoint" />
          </mxGeometry>
        </mxCell>
      </root>
    </mxGraphModel>
  </diagram>
</mxfile>
